<svg xmlns="http://www.w3.org/2000/svg" xmlns:xlink="http://www.w3.org/1999/xlink" width="1080" zoomAndPan="magnify" viewBox="0 0 810 809.999993" height="1080" preserveAspectRatio="xMidYMid meet" version="1.0"><defs><g/><clipPath id="d8932e06af"><path d="M 423.453125 526.78125 L 581.871094 526.78125 L 581.871094 685.203125 L 423.453125 685.203125 Z M 423.453125 526.78125 " clip-rule="nonzero"/></clipPath><clipPath id="125dde0dc6"><path d="M 502.660156 526.78125 C 458.914062 526.78125 423.453125 562.246094 423.453125 605.992188 C 423.453125 649.738281 458.914062 685.203125 502.660156 685.203125 C 546.40625 685.203125 581.871094 649.738281 581.871094 605.992188 C 581.871094 562.246094 546.40625 526.78125 502.660156 526.78125 Z M 502.660156 526.78125 " clip-rule="nonzero"/></clipPath><clipPath id="caa7f0e697"><path d="M 423.453125 56.246094 L 568.847656 56.246094 L 568.847656 201.640625 L 423.453125 201.640625 Z M 423.453125 56.246094 " clip-rule="nonzero"/></clipPath><clipPath id="bedbd200da"><path d="M 496.148438 56.246094 C 456 56.246094 423.453125 88.792969 423.453125 128.941406 C 423.453125 169.089844 456 201.640625 496.148438 201.640625 C 536.296875 201.640625 568.847656 169.089844 568.847656 128.941406 C 568.847656 88.792969 536.296875 56.246094 496.148438 56.246094 Z M 496.148438 56.246094 " clip-rule="nonzero"/></clipPath><clipPath id="ee31e92775"><path d="M 462 50 L 552.902344 50 L 552.902344 177 L 462 177 Z M 462 50 " clip-rule="nonzero"/></clipPath><clipPath id="a3a8e49475"><path d="M 432.152344 115 L 458 115 L 458 174 L 432.152344 174 Z M 432.152344 115 " clip-rule="nonzero"/></clipPath><clipPath id="de2f7fd592"><path d="M 432.386719 551 L 523 551 L 523 677 L 432.386719 677 Z M 432.386719 551 " clip-rule="nonzero"/></clipPath><clipPath id="704bceb713"><path d="M 527 553 L 552.902344 553 L 552.902344 612 L 527 612 Z M 527 553 " clip-rule="nonzero"/></clipPath></defs><g clip-path="url(#d8932e06af)"><g clip-path="url(#125dde0dc6)"><path fill="#2f4d33" d="M 423.453125 526.78125 L 581.871094 526.78125 L 581.871094 685.203125 L 423.453125 685.203125 Z M 423.453125 526.78125 " fill-opacity="1" fill-rule="nonzero"/></g></g><g fill="#ffffff" fill-opacity="1"><g transform="translate(500.174627, 620.882269)"><g/></g></g><g clip-path="url(#caa7f0e697)"><g clip-path="url(#bedbd200da)"><path fill="#2f4d33" d="M 423.453125 56.246094 L 568.847656 56.246094 L 568.847656 201.640625 L 423.453125 201.640625 Z M 423.453125 56.246094 " fill-opacity="1" fill-rule="nonzero"/></g></g><path stroke-linecap="butt" transform="matrix(5.39298, 0, 0, 5.39298, 31.819265, 269.120865)" fill="none" stroke-linejoin="miter" d="M 50.916352 74.331331 L 50.005156 74.331331 C 48.813648 76.567311 47.185374 78.244114 45.11961 79.361742 C 43.053846 80.480094 40.799758 81.03927 38.357347 81.03927 C 35.87872 81.03927 33.539163 80.619888 31.340123 79.781124 C 29.152673 78.930771 27.226703 77.709565 25.561489 76.117507 C 23.896999 74.525449 22.578734 72.55095 21.605971 70.193284 C 20.633932 67.82403 20.147912 65.120139 20.147912 62.082336 L 20.147912 60.879238 C 20.147912 57.902278 20.646245 55.234603 21.642911 52.877662 C 22.638853 50.507683 23.957842 48.515076 25.598429 46.899115 C 27.238293 45.270117 29.152673 44.037322 31.340123 43.198558 C 33.539163 42.348205 35.83019 41.923028 38.211759 41.923028 C 40.896817 41.923028 43.248688 42.511902 45.265923 43.691096 C 47.283157 44.857254 48.862902 46.558684 50.005156 48.794664 L 50.916352 48.794664 L 50.916352 42.961705 L 56.730478 42.961705 L 56.730478 89.114002 C 56.730478 90.803119 56.195929 92.19454 55.126831 93.287541 C 54.057733 94.381266 52.677901 94.928129 50.988784 94.928129 L 26.873959 94.928129 L 26.873959 89.551492 L 48.892599 89.551492 C 50.242009 89.551492 50.916352 88.803993 50.916352 87.308994 Z M 38.521768 75.516321 C 40.259415 75.516321 41.875375 75.193998 43.36965 74.550076 C 44.864649 73.906155 46.1706 72.98844 47.288952 71.797656 C 48.406579 70.594558 49.288078 69.160402 49.932 67.495912 C 50.588235 65.831422 50.916352 63.977884 50.916352 61.936747 L 50.916352 61.043659 C 50.916352 59.050327 50.588235 57.221416 49.932 55.556926 C 49.288078 53.880123 48.406579 52.445967 47.288952 51.255183 C 46.1706 50.064399 44.852335 49.13437 43.333434 48.466546 C 41.814532 47.785684 40.210885 47.445253 38.521768 47.445253 C 36.771808 47.445253 35.137015 47.773371 33.618114 48.429606 C 32.099212 49.074252 30.780947 49.991242 29.662596 51.182026 C 28.544968 52.37281 27.675783 53.794653 27.056488 55.447554 C 26.436469 57.088141 26.12646 58.898944 26.12646 60.879238 L 26.12646 62.082336 C 26.12646 64.172727 26.436469 66.037854 27.056488 67.678441 C 27.675783 69.318304 28.544968 70.728558 29.662596 71.907028 C 30.780947 73.073185 32.086899 73.966998 33.581898 74.586292 C 35.076172 75.206311 36.723278 75.516321 38.521768 75.516321 Z M 103.386179 61.936747 C 103.386179 65.02308 102.876257 67.750873 101.855688 70.120852 C 100.834395 72.477793 99.479915 74.464606 97.790798 76.081291 C 96.101681 77.697252 94.120662 78.930771 91.848467 79.781124 C 89.58786 80.619888 87.236714 81.03927 84.794303 81.03927 C 82.315676 81.03927 79.952216 80.619888 77.703923 79.781124 C 75.467943 78.930771 73.499238 77.697252 71.797808 76.081291 C 70.108691 74.464606 68.75421 72.477793 67.733641 70.120852 C 66.712349 67.750873 66.202426 65.02308 66.202426 61.936747 L 66.202426 61.043659 C 66.202426 58.005132 66.712349 55.30776 67.733641 52.950094 C 68.75421 50.58084 70.121004 48.575919 71.834748 46.935331 C 73.560081 45.28243 75.5411 44.037322 77.777079 43.198558 C 80.024648 42.348205 82.364205 41.923028 84.794303 41.923028 C 87.236714 41.923028 89.576271 42.348205 91.812251 43.198558 C 94.059819 44.037322 96.040838 45.28243 97.753857 46.935331 C 99.467601 48.575919 100.834395 50.58084 101.855688 52.950094 C 102.876257 55.30776 103.386179 58.005132 103.386179 61.043659 Z M 84.794303 75.516321 C 86.592792 75.516321 88.251488 75.206311 89.770389 74.586292 C 91.289291 73.966998 92.619869 73.061596 93.762123 71.870812 C 94.904378 70.667715 95.797466 69.233559 96.442112 67.569069 C 97.097622 65.903854 97.42574 64.026414 97.42574 61.936747 L 97.42574 61.043659 C 97.42574 59.050327 97.097622 57.221416 96.442112 55.556926 C 95.797466 53.880123 94.904378 52.445967 93.762123 51.255183 C 92.619869 50.064399 91.276977 49.13437 89.734173 48.466546 C 88.190645 47.785684 86.544263 47.445253 84.794303 47.445253 C 83.056656 47.445253 81.416069 47.785684 79.873265 48.466546 C 78.329736 49.13437 76.986845 50.064399 75.84459 51.255183 C 74.702336 52.445967 73.803453 53.880123 73.147218 55.556926 C 72.502572 57.221416 72.180974 59.050327 72.180974 61.043659 L 72.180974 61.936747 C 72.180974 64.026414 72.502572 65.903854 73.147218 67.569069 C 73.803453 69.233559 74.702336 70.667715 75.84459 71.870812 C 76.986845 73.061596 78.317423 73.966998 79.836324 74.586292 C 81.355226 75.206311 83.008127 75.516321 84.794303 75.516321 Z M 84.794303 75.516321 " stroke="#2f4d33" stroke-width="5.600002" stroke-opacity="1" stroke-miterlimit="4"/><g fill="#2f4d33" fill-opacity="1"><g transform="translate(119.539462, 700.559301)"><g><path d="M 186.828125 -30.59375 L 182 -30.59375 C 175.550781 -18.519531 166.753906 -9.460938 155.609375 -3.421875 C 144.472656 2.617188 132.332031 5.640625 119.1875 5.640625 C 105.757812 5.640625 93.140625 3.359375 81.328125 -1.203125 C 69.523438 -5.765625 59.125 -12.34375 50.125 -20.9375 C 41.132812 -29.53125 34.019531 -40.203125 28.78125 -52.953125 C 23.550781 -65.703125 20.9375 -80.265625 20.9375 -96.640625 L 20.9375 -103.078125 C 20.9375 -119.179688 23.617188 -133.609375 28.984375 -146.359375 C 34.359375 -159.109375 41.472656 -169.84375 50.328125 -178.5625 C 59.191406 -187.289062 69.523438 -193.9375 81.328125 -198.5 C 93.140625 -203.0625 105.488281 -205.34375 118.375 -205.34375 C 132.875 -205.34375 145.554688 -202.1875 156.421875 -195.875 C 167.296875 -189.570312 175.820312 -180.378906 182 -168.296875 L 186.828125 -168.296875 L 186.828125 -199.703125 L 218.234375 -199.703125 L 218.234375 49.125 C 218.234375 58.25 215.347656 65.765625 209.578125 71.671875 C 203.804688 77.578125 196.359375 80.53125 187.234375 80.53125 L 57.171875 80.53125 L 57.171875 51.53125 L 175.953125 51.53125 C 183.203125 51.53125 186.828125 47.503906 186.828125 39.453125 Z M 119.984375 -24.15625 C 129.378906 -24.15625 138.101562 -25.898438 146.15625 -29.390625 C 154.207031 -32.878906 161.253906 -37.84375 167.296875 -44.28125 C 173.335938 -50.726562 178.101562 -58.445312 181.59375 -67.4375 C 185.082031 -76.4375 186.828125 -86.4375 186.828125 -97.4375 L 186.828125 -102.265625 C 186.828125 -113.003906 185.082031 -122.867188 181.59375 -131.859375 C 178.101562 -140.859375 173.335938 -148.578125 167.296875 -155.015625 C 161.253906 -161.460938 154.140625 -166.492188 145.953125 -170.109375 C 137.765625 -173.734375 129.109375 -175.546875 119.984375 -175.546875 C 110.585938 -175.546875 101.796875 -173.800781 93.609375 -170.3125 C 85.421875 -166.820312 78.304688 -161.851562 72.265625 -155.40625 C 66.234375 -148.96875 61.539062 -141.320312 58.1875 -132.46875 C 54.832031 -123.613281 53.15625 -113.816406 53.15625 -103.078125 L 53.15625 -96.640625 C 53.15625 -85.359375 54.832031 -75.289062 58.1875 -66.4375 C 61.539062 -57.582031 66.234375 -50 72.265625 -43.6875 C 78.304688 -37.375 85.351562 -32.539062 93.40625 -29.1875 C 101.457031 -25.832031 110.316406 -24.15625 119.984375 -24.15625 Z M 119.984375 -24.15625 "/></g></g></g><g fill="#2f4d33" fill-opacity="1"><g transform="translate(365.942695, 700.559301)"><g><path d="M 223.46875 -97.4375 C 223.46875 -80.789062 220.710938 -66.09375 215.203125 -53.34375 C 209.703125 -40.59375 202.390625 -29.851562 193.265625 -21.125 C 184.140625 -12.40625 173.46875 -5.765625 161.25 -1.203125 C 149.039062 3.359375 136.359375 5.640625 123.203125 5.640625 C 109.785156 5.640625 97.035156 3.359375 84.953125 -1.203125 C 72.878906 -5.765625 62.273438 -12.40625 53.140625 -21.125 C 44.015625 -29.851562 36.703125 -40.59375 31.203125 -53.34375 C 25.703125 -66.09375 22.953125 -80.789062 22.953125 -97.4375 L 22.953125 -102.265625 C 22.953125 -118.640625 25.703125 -133.203125 31.203125 -145.953125 C 36.703125 -158.703125 44.082031 -169.503906 53.34375 -178.359375 C 62.601562 -187.222656 73.273438 -193.9375 85.359375 -198.5 C 97.441406 -203.0625 110.054688 -205.34375 123.203125 -205.34375 C 136.359375 -205.34375 148.972656 -203.0625 161.046875 -198.5 C 173.128906 -193.9375 183.800781 -187.222656 193.0625 -178.359375 C 202.320312 -169.503906 209.703125 -158.703125 215.203125 -145.953125 C 220.710938 -133.203125 223.46875 -118.640625 223.46875 -102.265625 Z M 123.203125 -24.15625 C 132.867188 -24.15625 141.796875 -25.832031 149.984375 -29.1875 C 158.171875 -32.539062 165.347656 -37.4375 171.515625 -43.875 C 177.691406 -50.320312 182.523438 -58.039062 186.015625 -67.03125 C 189.503906 -76.03125 191.25 -86.164062 191.25 -97.4375 L 191.25 -102.265625 C 191.25 -113.003906 189.503906 -122.867188 186.015625 -131.859375 C 182.523438 -140.859375 177.691406 -148.578125 171.515625 -155.015625 C 165.347656 -161.460938 158.101562 -166.492188 149.78125 -170.109375 C 141.457031 -173.734375 132.597656 -175.546875 123.203125 -175.546875 C 113.804688 -175.546875 104.945312 -173.734375 96.625 -170.109375 C 88.3125 -166.492188 81.066406 -161.460938 74.890625 -155.015625 C 68.710938 -148.578125 63.878906 -140.859375 60.390625 -131.859375 C 56.898438 -122.867188 55.15625 -113.003906 55.15625 -102.265625 L 55.15625 -97.4375 C 55.15625 -86.164062 56.898438 -76.03125 60.390625 -67.03125 C 63.878906 -58.039062 68.710938 -50.320312 74.890625 -43.875 C 81.066406 -37.4375 88.25 -32.539062 96.4375 -29.1875 C 104.625 -25.832031 113.546875 -24.15625 123.203125 -24.15625 Z M 123.203125 -24.15625 "/></g></g></g><path stroke-linecap="butt" transform="matrix(5.39298, 0, 0, 5.39298, 199.300409, 49.894803)" fill="none" stroke-linejoin="miter" d="M 25.696812 79.999776 L 19.863853 79.999776 L 19.863853 42.961612 L 25.696812 42.961612 L 25.696812 49.232061 L 26.5899 49.232061 C 28.874409 44.358828 32.853829 41.922936 38.528886 41.922936 C 42.818316 41.922936 46.226971 43.253514 48.754852 45.91467 C 51.294322 48.575826 52.564057 52.573354 52.564057 57.90798 L 52.564057 79.999776 L 46.749931 79.999776 L 46.749931 59.092969 C 46.749931 55.216402 45.874951 52.30608 44.124991 50.362002 C 42.387345 48.417924 40.023885 47.445885 37.034611 47.445885 C 33.510064 47.445885 30.739536 48.654777 28.722301 51.072561 C 26.705067 53.478756 25.696812 56.699088 25.696812 60.733557 Z M 100.496012 61.936654 C 100.496012 65.022987 99.985366 67.75078 98.964797 70.120759 C 97.944228 72.478425 96.589024 74.465238 94.899907 76.081198 C 93.21079 77.697159 91.230495 78.930678 88.957576 79.781031 C 86.697693 80.619795 84.346547 81.039177 81.903411 81.039177 C 79.424784 81.039177 77.061324 80.619795 74.813031 79.781031 C 72.577052 78.930678 70.609071 77.697159 68.907641 76.081198 C 67.218524 74.465238 65.863319 72.478425 64.84275 70.120759 C 63.822182 67.75078 63.311535 65.022987 63.311535 61.936654 L 63.311535 61.043566 C 63.311535 58.005763 63.822182 55.307667 64.84275 52.950001 C 65.863319 50.580747 67.230837 48.575826 68.943857 46.935238 C 70.66919 45.282337 72.650208 44.037229 74.886188 43.198465 C 77.134481 42.348112 79.473314 41.922936 81.903411 41.922936 C 84.346547 41.922936 86.68538 42.348112 88.921359 43.198465 C 91.169652 44.037229 93.149947 45.282337 94.86369 46.935238 C 96.57671 48.575826 97.944228 50.580747 98.964797 52.950001 C 99.985366 55.307667 100.496012 58.005763 100.496012 61.043566 Z M 81.903411 75.516228 C 83.701901 75.516228 85.360597 75.206218 86.879498 74.5862 C 88.399124 73.966905 89.729702 73.061503 90.871956 71.870719 C 92.014211 70.667622 92.907299 69.233466 93.55122 67.568976 C 94.207455 65.903761 94.535573 64.026321 94.535573 61.936654 L 94.535573 61.043566 C 94.535573 59.050234 94.207455 57.221323 93.55122 55.556833 C 92.907299 53.88003 92.014211 52.445874 90.871956 51.25509 C 89.729702 50.064306 88.38681 49.135002 86.843282 48.466453 C 85.300478 47.785591 83.653371 47.445885 81.903411 47.445885 C 80.165765 47.445885 78.525902 47.785591 76.982373 48.466453 C 75.438845 49.135002 74.095953 50.064306 72.953699 51.25509 C 71.811444 52.445874 70.912562 53.88003 70.256327 55.556833 C 69.612405 57.221323 69.290082 59.050234 69.290082 61.043566 L 69.290082 61.936654 C 69.290082 64.026321 69.612405 65.903761 70.256327 67.568976 C 70.912562 69.233466 71.811444 70.667622 72.953699 71.870719 C 74.095953 73.061503 75.426531 73.966905 76.946157 74.5862 C 78.465059 75.206218 80.117235 75.516228 81.903411 75.516228 Z M 81.903411 75.516228 " stroke="#2f4d33" stroke-width="5.600002" stroke-opacity="1" stroke-miterlimit="4"/><g fill="#2f4d33" fill-opacity="1"><g transform="translate(271.431523, 481.333239)"><g><path d="M 66.4375 0 L 35.03125 0 L 35.03125 -199.703125 L 66.4375 -199.703125 L 66.4375 -165.890625 L 71.265625 -165.890625 C 83.609375 -192.191406 105.082031 -205.34375 135.6875 -205.34375 C 158.769531 -205.34375 177.15625 -198.160156 190.84375 -183.796875 C 204.539062 -169.441406 211.390625 -147.90625 211.390625 -119.1875 L 211.390625 0 L 179.984375 0 L 179.984375 -112.734375 C 179.984375 -133.671875 175.285156 -149.375 165.890625 -159.84375 C 156.492188 -170.3125 143.742188 -175.546875 127.640625 -175.546875 C 108.578125 -175.546875 93.609375 -169.035156 82.734375 -156.015625 C 71.867188 -143.003906 66.4375 -125.625 66.4375 -103.875 Z M 66.4375 0 "/></g></g></g><g fill="#2f4d33" fill-opacity="1"><g transform="translate(517.834756, 481.333239)"><g><path d="M 223.46875 -97.4375 C 223.46875 -80.789062 220.710938 -66.09375 215.203125 -53.34375 C 209.703125 -40.59375 202.390625 -29.851562 193.265625 -21.125 C 184.140625 -12.40625 173.46875 -5.765625 161.25 -1.203125 C 149.039062 3.359375 136.359375 5.640625 123.203125 5.640625 C 109.785156 5.640625 97.035156 3.359375 84.953125 -1.203125 C 72.878906 -5.765625 62.273438 -12.40625 53.140625 -21.125 C 44.015625 -29.851562 36.703125 -40.59375 31.203125 -53.34375 C 25.703125 -66.09375 22.953125 -80.789062 22.953125 -97.4375 L 22.953125 -102.265625 C 22.953125 -118.640625 25.703125 -133.203125 31.203125 -145.953125 C 36.703125 -158.703125 44.082031 -169.503906 53.34375 -178.359375 C 62.601562 -187.222656 73.273438 -193.9375 85.359375 -198.5 C 97.441406 -203.0625 110.054688 -205.34375 123.203125 -205.34375 C 136.359375 -205.34375 148.972656 -203.0625 161.046875 -198.5 C 173.128906 -193.9375 183.800781 -187.222656 193.0625 -178.359375 C 202.320312 -169.503906 209.703125 -158.703125 215.203125 -145.953125 C 220.710938 -133.203125 223.46875 -118.640625 223.46875 -102.265625 Z M 123.203125 -24.15625 C 132.867188 -24.15625 141.796875 -25.832031 149.984375 -29.1875 C 158.171875 -32.539062 165.347656 -37.4375 171.515625 -43.875 C 177.691406 -50.320312 182.523438 -58.039062 186.015625 -67.03125 C 189.503906 -76.03125 191.25 -86.164062 191.25 -97.4375 L 191.25 -102.265625 C 191.25 -113.003906 189.503906 -122.867188 186.015625 -131.859375 C 182.523438 -140.859375 177.691406 -148.578125 171.515625 -155.015625 C 165.347656 -161.460938 158.101562 -166.492188 149.78125 -170.109375 C 141.457031 -173.734375 132.597656 -175.546875 123.203125 -175.546875 C 113.804688 -175.546875 104.945312 -173.734375 96.625 -170.109375 C 88.3125 -166.492188 81.066406 -161.460938 74.890625 -155.015625 C 68.710938 -148.578125 63.878906 -140.859375 60.390625 -131.859375 C 56.898438 -122.867188 55.15625 -113.003906 55.15625 -102.265625 L 55.15625 -97.4375 C 55.15625 -86.164062 56.898438 -76.03125 60.390625 -67.03125 C 63.878906 -58.039062 68.710938 -50.320312 74.890625 -43.875 C 81.066406 -37.4375 88.25 -32.539062 96.4375 -29.1875 C 104.625 -25.832031 113.546875 -24.15625 123.203125 -24.15625 Z M 123.203125 -24.15625 "/></g></g></g><path stroke-linecap="butt" transform="matrix(5.39298, 0, 0, 5.39298, 32.569265, -200.634858)" fill="none" stroke-linejoin="miter" d="M 50.916352 74.330944 L 50.005156 74.330944 C 48.813648 76.566923 47.185374 78.243727 45.11961 79.362079 C 43.053846 80.479706 40.799758 81.038882 38.357347 81.038882 C 35.87872 81.038882 33.539163 80.6195 31.340123 79.781461 C 29.152673 78.930383 27.226703 77.709178 25.561489 76.117844 C 23.896999 74.525786 22.578734 72.551287 21.605971 70.193621 C 20.633932 67.824367 20.147912 65.120476 20.147912 62.082673 L 20.147912 60.879575 C 20.147912 57.901891 20.646245 55.23494 21.642911 52.877275 C 22.638853 50.50802 23.957842 48.514688 25.598429 46.898727 C 27.238293 45.270453 29.152673 44.036934 31.340123 43.198895 C 33.539163 42.347817 35.83019 41.922641 38.211759 41.922641 C 40.896817 41.922641 43.248688 42.512238 45.265923 43.690709 C 47.283157 44.85759 48.862902 46.558297 50.005156 48.794276 L 50.916352 48.794276 L 50.916352 42.961318 L 56.730478 42.961318 L 56.730478 89.113615 C 56.730478 90.802732 56.195929 92.194153 55.126831 93.287878 C 54.057733 94.381603 52.677901 94.928465 50.988784 94.928465 L 26.873959 94.928465 L 26.873959 89.551105 L 48.892599 89.551105 C 50.242009 89.551105 50.916352 88.803605 50.916352 87.309331 Z M 38.521768 75.515933 C 40.259415 75.515933 41.875375 75.194335 43.36965 74.549689 C 44.864649 73.905767 46.1706 72.988777 47.288952 71.797268 C 48.406579 70.594895 49.288078 69.160739 49.932 67.496249 C 50.588235 65.831035 50.916352 63.978221 50.916352 61.93636 L 50.916352 61.043272 C 50.916352 59.050664 50.588235 57.221753 49.932 55.556539 C 49.288078 53.879735 48.406579 52.446303 47.288952 51.255519 C 46.1706 50.064011 44.852335 49.134707 43.333434 48.466159 C 41.814532 47.786021 40.210885 47.44559 38.521768 47.44559 C 36.771808 47.44559 35.137015 47.773707 33.618114 48.429942 C 32.099212 49.073864 30.780947 49.991579 29.662596 51.182363 C 28.544968 52.373147 27.675783 53.79499 27.056488 55.447166 C 26.436469 57.087754 26.12646 58.898557 26.12646 60.879575 L 26.12646 62.082673 C 26.12646 64.172339 26.436469 66.037466 27.056488 67.678054 C 27.675783 69.318641 28.544968 70.72817 29.662596 71.906641 C 30.780947 73.073522 32.086899 73.96661 33.581898 74.586629 C 35.076172 75.205924 36.723279 75.515933 38.521768 75.515933 Z M 103.386179 61.93636 C 103.386179 65.022692 102.876257 67.75121 101.855688 70.120465 C 100.834395 72.47813 99.479915 74.464943 97.790798 76.080904 C 96.101681 77.697589 94.120662 78.930383 91.848467 79.781461 C 89.58786 80.6195 87.236714 81.038882 84.794303 81.038882 C 82.315676 81.038882 79.952216 80.6195 77.703923 79.781461 C 75.467943 78.930383 73.499238 77.697589 71.797808 76.080904 C 70.108691 74.464943 68.75421 72.47813 67.733641 70.120465 C 66.712349 67.75121 66.202426 65.022692 66.202426 61.93636 L 66.202426 61.043272 C 66.202426 58.005469 66.712349 55.308096 67.733641 52.950431 C 68.75421 50.580452 70.121004 48.575531 71.834748 46.934944 C 73.560081 45.282767 75.5411 44.036934 77.777079 43.198895 C 80.024648 42.347817 82.364205 41.922641 84.794303 41.922641 C 87.236714 41.922641 89.576271 42.347817 91.812251 43.198895 C 94.059819 44.036934 96.040838 45.282767 97.753857 46.934944 C 99.467601 48.575531 100.834395 50.580452 101.855688 52.950431 C 102.876257 55.308096 103.386179 58.005469 103.386179 61.043272 Z M 84.794303 75.515933 C 86.592792 75.515933 88.251488 75.205924 89.770389 74.586629 C 91.289291 73.96661 92.619869 73.061209 93.762123 71.870425 C 94.904378 70.667327 95.797466 69.233896 96.442112 67.568681 C 97.097622 65.904191 97.42574 64.026751 97.42574 61.93636 L 97.42574 61.043272 C 97.42574 59.050664 97.097622 57.221753 96.442112 55.556539 C 95.797466 53.879735 94.904378 52.446303 93.762123 51.255519 C 92.619869 50.064011 91.276977 49.134707 89.734173 48.466159 C 88.190645 47.786021 86.544263 47.44559 84.794303 47.44559 C 83.056656 47.44559 81.416069 47.786021 79.873265 48.466159 C 78.329736 49.134707 76.986845 50.064011 75.84459 51.255519 C 74.702336 52.446303 73.803453 53.879735 73.147218 55.556539 C 72.502572 57.221753 72.180974 59.050664 72.180974 61.043272 L 72.180974 61.93636 C 72.180974 64.026751 72.502572 65.904191 73.147218 67.568681 C 73.803453 69.233896 74.702336 70.667327 75.84459 71.870425 C 76.986845 73.061209 78.317423 73.96661 79.836324 74.586629 C 81.355226 75.205924 83.008127 75.515933 84.794303 75.515933 Z M 84.794303 75.515933 " stroke="#2f4d33" stroke-width="5.600002" stroke-opacity="1" stroke-miterlimit="4"/><g fill="#2f4d33" fill-opacity="1"><g transform="translate(120.289462, 230.803578)"><g><path d="M 186.828125 -30.59375 L 182 -30.59375 C 175.550781 -18.519531 166.753906 -9.460938 155.609375 -3.421875 C 144.472656 2.617188 132.332031 5.640625 119.1875 5.640625 C 105.757812 5.640625 93.140625 3.359375 81.328125 -1.203125 C 69.523438 -5.765625 59.125 -12.34375 50.125 -20.9375 C 41.132812 -29.53125 34.019531 -40.203125 28.78125 -52.953125 C 23.550781 -65.703125 20.9375 -80.265625 20.9375 -96.640625 L 20.9375 -103.078125 C 20.9375 -119.179688 23.617188 -133.609375 28.984375 -146.359375 C 34.359375 -159.109375 41.472656 -169.84375 50.328125 -178.5625 C 59.191406 -187.289062 69.523438 -193.9375 81.328125 -198.5 C 93.140625 -203.0625 105.488281 -205.34375 118.375 -205.34375 C 132.875 -205.34375 145.554688 -202.1875 156.421875 -195.875 C 167.296875 -189.570312 175.820312 -180.378906 182 -168.296875 L 186.828125 -168.296875 L 186.828125 -199.703125 L 218.234375 -199.703125 L 218.234375 49.125 C 218.234375 58.25 215.347656 65.765625 209.578125 71.671875 C 203.804688 77.578125 196.359375 80.53125 187.234375 80.53125 L 57.171875 80.53125 L 57.171875 51.53125 L 175.953125 51.53125 C 183.203125 51.53125 186.828125 47.503906 186.828125 39.453125 Z M 119.984375 -24.15625 C 129.378906 -24.15625 138.101562 -25.898438 146.15625 -29.390625 C 154.207031 -32.878906 161.253906 -37.84375 167.296875 -44.28125 C 173.335938 -50.726562 178.101562 -58.445312 181.59375 -67.4375 C 185.082031 -76.4375 186.828125 -86.4375 186.828125 -97.4375 L 186.828125 -102.265625 C 186.828125 -113.003906 185.082031 -122.867188 181.59375 -131.859375 C 178.101562 -140.859375 173.335938 -148.578125 167.296875 -155.015625 C 161.253906 -161.460938 154.140625 -166.492188 145.953125 -170.109375 C 137.765625 -173.734375 129.109375 -175.546875 119.984375 -175.546875 C 110.585938 -175.546875 101.796875 -173.800781 93.609375 -170.3125 C 85.421875 -166.820312 78.304688 -161.851562 72.265625 -155.40625 C 66.234375 -148.96875 61.539062 -141.320312 58.1875 -132.46875 C 54.832031 -123.613281 53.15625 -113.816406 53.15625 -103.078125 L 53.15625 -96.640625 C 53.15625 -85.359375 54.832031 -75.289062 58.1875 -66.4375 C 61.539062 -57.582031 66.234375 -50 72.265625 -43.6875 C 78.304688 -37.375 85.351562 -32.539062 93.40625 -29.1875 C 101.457031 -25.832031 110.316406 -24.15625 119.984375 -24.15625 Z M 119.984375 -24.15625 "/></g></g></g><g fill="#2f4d33" fill-opacity="1"><g transform="translate(366.692695, 230.803578)"><g><path d="M 223.46875 -97.4375 C 223.46875 -80.789062 220.710938 -66.09375 215.203125 -53.34375 C 209.703125 -40.59375 202.390625 -29.851562 193.265625 -21.125 C 184.140625 -12.40625 173.46875 -5.765625 161.25 -1.203125 C 149.039062 3.359375 136.359375 5.640625 123.203125 5.640625 C 109.785156 5.640625 97.035156 3.359375 84.953125 -1.203125 C 72.878906 -5.765625 62.273438 -12.40625 53.140625 -21.125 C 44.015625 -29.851562 36.703125 -40.59375 31.203125 -53.34375 C 25.703125 -66.09375 22.953125 -80.789062 22.953125 -97.4375 L 22.953125 -102.265625 C 22.953125 -118.640625 25.703125 -133.203125 31.203125 -145.953125 C 36.703125 -158.703125 44.082031 -169.503906 53.34375 -178.359375 C 62.601562 -187.222656 73.273438 -193.9375 85.359375 -198.5 C 97.441406 -203.0625 110.054688 -205.34375 123.203125 -205.34375 C 136.359375 -205.34375 148.972656 -203.0625 161.046875 -198.5 C 173.128906 -193.9375 183.800781 -187.222656 193.0625 -178.359375 C 202.320312 -169.503906 209.703125 -158.703125 215.203125 -145.953125 C 220.710938 -133.203125 223.46875 -118.640625 223.46875 -102.265625 Z M 123.203125 -24.15625 C 132.867188 -24.15625 141.796875 -25.832031 149.984375 -29.1875 C 158.171875 -32.539062 165.347656 -37.4375 171.515625 -43.875 C 177.691406 -50.320312 182.523438 -58.039062 186.015625 -67.03125 C 189.503906 -76.03125 191.25 -86.164062 191.25 -97.4375 L 191.25 -102.265625 C 191.25 -113.003906 189.503906 -122.867188 186.015625 -131.859375 C 182.523438 -140.859375 177.691406 -148.578125 171.515625 -155.015625 C 165.347656 -161.460938 158.101562 -166.492188 149.78125 -170.109375 C 141.457031 -173.734375 132.597656 -175.546875 123.203125 -175.546875 C 113.804688 -175.546875 104.945312 -173.734375 96.625 -170.109375 C 88.3125 -166.492188 81.066406 -161.460938 74.890625 -155.015625 C 68.710938 -148.578125 63.878906 -140.859375 60.390625 -131.859375 C 56.898438 -122.867188 55.15625 -113.003906 55.15625 -102.265625 L 55.15625 -97.4375 C 55.15625 -86.164062 56.898438 -76.03125 60.390625 -67.03125 C 63.878906 -58.039062 68.710938 -50.320312 74.890625 -43.875 C 81.066406 -37.4375 88.25 -32.539062 96.4375 -29.1875 C 104.625 -25.832031 113.546875 -24.15625 123.203125 -24.15625 Z M 123.203125 -24.15625 "/></g></g></g><g clip-path="url(#ee31e92775)"><path fill="#ffffff" d="M 548.289062 121.683594 C 548.5625 119.628906 552.351562 116.585938 552.476562 114.511719 C 552.695312 110.746094 547.605469 103.375 544.105469 101.957031 C 538.554688 99.710938 510.332031 100.761719 510.332031 100.761719 C 507.574219 95.941406 515.246094 84.035156 517.355469 78.894531 C 520.457031 71.363281 519.933594 61.367188 516.015625 56.230469 C 511.230469 49.957031 502.445312 49.539062 502.265625 52.347656 C 500.957031 72.707031 497.058594 78.355469 491.839844 82.382812 C 488.707031 84.800781 485.964844 86.917969 484.519531 90.601562 C 475.625 113.253906 469.035156 118.496094 465.265625 118.496094 L 462.753906 118.496094 L 462.753906 169.980469 L 489.121094 174.882812 C 489.121094 174.882812 521.851562 177.980469 532.15625 174.882812 C 535.398438 173.910156 540.996094 169.042969 542.316406 165.917969 C 543.074219 164.125 542.023438 159.878906 542.917969 158.144531 C 544.234375 155.582031 549.796875 152.367188 549.792969 148.882812 C 549.789062 146.394531 546.890625 142.09375 547.101562 139.617188 C 547.3125 137.132812 552.488281 133.730469 552.480469 131.246094 C 552.46875 128.640625 547.949219 124.273438 548.289062 121.683594 Z M 548.289062 121.683594 " fill-opacity="1" fill-rule="nonzero"/></g><g clip-path="url(#a3a8e49475)"><path fill="#ffffff" d="M 457.734375 168.722656 C 457.734375 171.5 455.484375 173.746094 452.710938 173.746094 L 437.640625 173.746094 C 434.867188 173.746094 432.621094 171.5 432.621094 168.722656 L 432.621094 121.007812 C 432.621094 118.234375 434.867188 115.984375 437.640625 115.984375 L 452.710938 115.984375 C 455.484375 115.984375 457.734375 118.234375 457.734375 121.007812 Z M 457.734375 168.722656 " fill-opacity="1" fill-rule="nonzero"/></g><g clip-path="url(#de2f7fd592)"><path fill="#ffffff" d="M 436.996094 605.890625 C 436.726562 607.945312 432.933594 610.988281 432.8125 613.0625 C 432.59375 616.828125 437.683594 624.199219 441.179688 625.617188 C 446.734375 627.863281 474.953125 626.8125 474.953125 626.8125 C 477.710938 631.632812 470.039062 643.539062 467.929688 648.679688 C 464.832031 656.210938 465.355469 666.207031 469.273438 671.34375 C 474.054688 677.617188 482.839844 678.035156 483.019531 675.226562 C 484.328125 654.867188 488.226562 649.21875 493.445312 645.191406 C 496.582031 642.773438 499.320312 640.65625 500.765625 636.972656 C 509.660156 614.320312 516.253906 609.078125 520.019531 609.078125 L 522.53125 609.078125 L 522.53125 557.59375 L 496.167969 552.691406 C 496.167969 552.691406 463.4375 549.59375 453.128906 552.691406 C 449.886719 553.664062 444.292969 558.53125 442.96875 561.65625 C 442.214844 563.449219 443.261719 567.695312 442.371094 569.429688 C 441.050781 571.992188 435.488281 575.207031 435.492188 578.691406 C 435.5 581.175781 438.394531 585.480469 438.183594 587.957031 C 437.976562 590.441406 432.800781 593.839844 432.804688 596.328125 C 432.816406 598.933594 437.339844 603.300781 436.996094 605.890625 Z M 436.996094 605.890625 " fill-opacity="1" fill-rule="nonzero"/></g><g clip-path="url(#704bceb713)"><path fill="#ffffff" d="M 527.550781 558.847656 C 527.550781 556.074219 529.800781 553.828125 532.574219 553.828125 L 547.644531 553.828125 C 550.417969 553.828125 552.667969 556.074219 552.667969 558.847656 L 552.667969 606.566406 C 552.667969 609.339844 550.417969 611.589844 547.644531 611.589844 L 532.574219 611.589844 C 529.800781 611.589844 527.550781 609.339844 527.550781 606.566406 Z M 527.550781 558.847656 " fill-opacity="1" fill-rule="nonzero"/></g><path stroke-linecap="butt" transform="matrix(1.347699, 0, 0, 1.347699, 191.805198, 90.308483)" fill="none" stroke-linejoin="miter" d="M 17.648341 39.998824 L 14.691913 39.998824 C 13.64267 39.998824 12.738351 39.853901 11.981853 39.558258 C 11.225355 39.265514 10.648562 38.7264 10.248574 37.946715 C 9.854384 37.164131 9.657289 36.071411 9.657289 34.665659 L 9.657289 21.639981 L 6.242903 21.639981 L 6.242903 18.758913 L 9.657289 18.758913 L 9.657289 10.695398 L 12.920954 10.695398 L 12.920954 18.758913 L 17.683123 18.758913 L 17.683123 21.639981 L 12.920954 21.639981 L 12.920954 34.007708 C 12.920954 34.619283 12.964431 35.164194 13.051385 35.639541 C 13.147034 36.114888 13.370215 36.480094 13.726726 36.738057 C 14.089033 36.993122 14.668725 37.120654 15.462903 37.120654 L 17.648341 37.120654 Z M 25.097383 39.998824 L 21.833717 39.998824 L 21.833717 10.695398 L 25.097383 10.695398 L 25.097383 22.060258 C 26.172711 20.680591 27.201664 19.718303 28.181343 19.182088 C 29.169718 18.645873 30.242148 18.376316 31.398634 18.376316 C 33.062349 18.376316 34.392742 18.692248 35.392711 19.324112 C 36.392679 19.947281 37.146279 20.744357 37.653509 21.715341 C 38.166537 22.663138 38.459281 23.651512 38.534641 24.677567 C 38.615798 25.703622 38.656376 26.547073 38.656376 27.207922 L 38.656376 39.998824 L 35.392711 39.998824 L 35.392711 27.207922 C 35.392711 24.958718 34.984028 23.370362 34.166662 22.445753 C 33.447844 21.651575 32.358024 21.254486 30.902997 21.254486 C 30.027662 21.254486 29.271164 21.396511 28.633503 21.677661 C 27.995842 21.958812 27.456729 22.341409 27.019061 22.831248 C 26.326329 23.550066 25.830693 24.535542 25.537948 25.793474 C 25.245204 27.04271 25.097383 28.7557 25.097383 30.932443 Z M 53.40084 40.384319 C 51.380614 40.384319 49.589366 39.906073 48.027096 38.949582 C 46.464826 37.987293 45.247473 36.680088 44.377935 35.030865 C 43.511296 33.372946 43.076527 31.509236 43.076527 29.439736 C 43.076527 27.515159 43.473616 25.709419 44.267794 24.019617 C 45.059073 22.332713 46.224254 20.970437 47.754641 19.932789 C 49.293723 18.89514 51.148737 18.376316 53.32548 18.376316 C 55.119626 18.376316 56.792038 18.773405 58.342714 19.567583 C 59.893389 20.361761 61.151321 21.538535 62.122305 23.100805 C 63.096187 24.665973 63.583128 26.584753 63.583128 28.860044 L 63.583128 30.013631 L 46.302513 30.013631 C 46.351786 30.755637 46.490912 31.459962 46.722789 32.12371 C 47.261903 33.761339 48.116948 35.068544 49.293723 36.042427 C 50.473396 37.019208 51.829875 37.506149 53.36316 37.506149 C 54.974704 37.506149 56.319589 37.077177 57.394917 36.222131 C 58.470246 35.35839 59.238338 34.338133 59.702091 33.164257 L 63.200532 33.164257 C 62.762864 34.494649 62.107812 35.706206 61.238275 36.793128 C 60.371635 37.88005 59.287611 38.752487 57.994898 39.410437 C 56.702185 40.059692 55.1689 40.384319 53.40084 40.384319 Z M 46.601054 27.135461 L 60.084688 27.135461 C 60.0615 26.770255 60.009328 26.410846 59.925272 26.054335 C 59.852811 25.700723 59.751365 25.3674 59.626731 25.063062 C 59.06443 23.831217 58.226775 22.889217 57.113767 22.239963 C 56.000758 21.582012 54.763116 21.254486 53.40084 21.254486 C 51.992189 21.254486 50.757445 21.587809 49.696609 22.257353 C 48.632874 22.921101 47.806813 23.854404 47.221324 25.063062 C 47.064807 25.393487 46.934377 25.741302 46.835829 26.103609 C 46.734383 26.46012 46.659023 26.802138 46.601054 27.135461 Z M 46.601054 27.135461 " stroke="#2f4d33" stroke-width="2.881432" stroke-opacity="1" stroke-miterlimit="4"/><g fill="#2f4d33" fill-opacity="1"><g transform="translate(198.817442, 144.216428)"><g><path d="M 16.765625 0 L 12.78125 0 C 11.363281 0 10.144531 -0.195312 9.125 -0.59375 C 8.113281 -0.988281 7.335938 -1.710938 6.796875 -2.765625 C 6.265625 -3.816406 6 -5.296875 6 -7.203125 L 6 -24.75 L 1.390625 -24.75 L 1.390625 -28.625 L 6 -28.625 L 6 -39.5 L 10.40625 -39.5 L 10.40625 -28.625 L 16.828125 -28.625 L 16.828125 -24.75 L 10.40625 -24.75 L 10.40625 -8.078125 C 10.40625 -7.242188 10.460938 -6.507812 10.578125 -5.875 C 10.703125 -5.238281 11.003906 -4.742188 11.484375 -4.390625 C 11.972656 -4.046875 12.753906 -3.875 13.828125 -3.875 L 16.765625 -3.875 Z M 16.765625 0 "/></g></g></g><g fill="#2f4d33" fill-opacity="1"><g transform="translate(217.502757, 144.216428)"><g><path d="M 8.125 0 L 3.734375 0 L 3.734375 -39.5 L 8.125 -39.5 L 8.125 -24.171875 C 9.570312 -26.035156 10.957031 -27.328125 12.28125 -28.046875 C 13.613281 -28.773438 15.054688 -29.140625 16.609375 -29.140625 C 18.859375 -29.140625 20.65625 -28.71875 22 -27.875 C 23.34375 -27.03125 24.359375 -25.953125 25.046875 -24.640625 C 25.742188 -23.359375 26.144531 -22.023438 26.25 -20.640625 C 26.351562 -19.265625 26.40625 -18.128906 26.40625 -17.234375 L 26.40625 0 L 22 0 L 22 -17.234375 C 22 -20.273438 21.445312 -22.414062 20.34375 -23.65625 C 19.375 -24.726562 17.90625 -25.265625 15.9375 -25.265625 C 14.769531 -25.265625 13.753906 -25.070312 12.890625 -24.6875 C 12.023438 -24.3125 11.300781 -23.796875 10.71875 -23.140625 C 9.78125 -22.171875 9.113281 -20.835938 8.71875 -19.140625 C 8.320312 -17.453125 8.125 -15.144531 8.125 -12.21875 Z M 8.125 0 "/></g></g></g><g fill="#2f4d33" fill-opacity="1"><g transform="translate(247.368216, 144.216428)"><g><path d="M 16.40625 0.515625 C 13.675781 0.515625 11.257812 -0.128906 9.15625 -1.421875 C 7.050781 -2.710938 5.410156 -4.472656 4.234375 -6.703125 C 3.066406 -8.929688 2.484375 -11.441406 2.484375 -14.234375 C 2.484375 -16.828125 3.015625 -19.257812 4.078125 -21.53125 C 5.148438 -23.8125 6.722656 -25.648438 8.796875 -27.046875 C 10.867188 -28.441406 13.375 -29.140625 16.3125 -29.140625 C 18.726562 -29.140625 20.976562 -28.601562 23.0625 -27.53125 C 25.144531 -26.46875 26.84375 -24.882812 28.15625 -22.78125 C 29.46875 -20.675781 30.125 -18.085938 30.125 -15.015625 L 30.125 -13.453125 L 6.828125 -13.453125 C 6.898438 -12.453125 7.09375 -11.503906 7.40625 -10.609375 C 8.125 -8.398438 9.273438 -6.640625 10.859375 -5.328125 C 12.453125 -4.015625 14.285156 -3.359375 16.359375 -3.359375 C 18.535156 -3.359375 20.347656 -3.9375 21.796875 -5.09375 C 23.242188 -6.25 24.28125 -7.625 24.90625 -9.21875 L 29.609375 -9.21875 C 29.023438 -7.414062 28.144531 -5.78125 26.96875 -4.3125 C 25.789062 -2.851562 24.332031 -1.679688 22.59375 -0.796875 C 20.851562 0.078125 18.789062 0.515625 16.40625 0.515625 Z M 7.25 -17.34375 L 25.421875 -17.34375 C 25.378906 -17.820312 25.304688 -18.300781 25.203125 -18.78125 C 25.097656 -19.269531 24.960938 -19.722656 24.796875 -20.140625 C 24.035156 -21.796875 22.90625 -23.0625 21.40625 -23.9375 C 19.90625 -24.820312 18.238281 -25.265625 16.40625 -25.265625 C 14.507812 -25.265625 12.84375 -24.8125 11.40625 -23.90625 C 9.976562 -23.007812 8.867188 -21.753906 8.078125 -20.140625 C 7.867188 -19.691406 7.691406 -19.222656 7.546875 -18.734375 C 7.410156 -18.253906 7.3125 -17.789062 7.25 -17.34375 Z M 7.25 -17.34375 "/></g></g></g></svg>