<svg xmlns="http://www.w3.org/2000/svg" xmlns:xlink="http://www.w3.org/1999/xlink" width="1080" zoomAndPan="magnify" viewBox="0 0 810 809.999993" height="1080" preserveAspectRatio="xMidYMid meet" version="1.0"><defs><g/><clipPath id="3bda7e131f"><path d="M 423.453125 526.78125 L 581.871094 526.78125 L 581.871094 685.203125 L 423.453125 685.203125 Z M 423.453125 526.78125 " clip-rule="nonzero"/></clipPath><clipPath id="8cf2d07aaa"><path d="M 502.660156 526.78125 C 458.914062 526.78125 423.453125 562.246094 423.453125 605.992188 C 423.453125 649.738281 458.914062 685.203125 502.660156 685.203125 C 546.40625 685.203125 581.871094 649.738281 581.871094 605.992188 C 581.871094 562.246094 546.40625 526.78125 502.660156 526.78125 Z M 502.660156 526.78125 " clip-rule="nonzero"/></clipPath><clipPath id="e2ab209e45"><path d="M 423.453125 56.246094 L 568.847656 56.246094 L 568.847656 201.640625 L 423.453125 201.640625 Z M 423.453125 56.246094 " clip-rule="nonzero"/></clipPath><clipPath id="36c38efd2a"><path d="M 496.148438 56.246094 C 456 56.246094 423.453125 88.792969 423.453125 128.941406 C 423.453125 169.089844 456 201.640625 496.148438 201.640625 C 536.296875 201.640625 568.847656 169.089844 568.847656 128.941406 C 568.847656 88.792969 536.296875 56.246094 496.148438 56.246094 Z M 496.148438 56.246094 " clip-rule="nonzero"/></clipPath><clipPath id="437f30b6db"><path d="M 432.152344 115 L 458 115 L 458 174 L 432.152344 174 Z M 432.152344 115 " clip-rule="nonzero"/></clipPath><clipPath id="cf8f0496ed"><path d="M 432.152344 551 L 523 551 L 523 677 L 432.152344 677 Z M 432.152344 551 " clip-rule="nonzero"/></clipPath></defs><g clip-path="url(#3bda7e131f)"><g clip-path="url(#8cf2d07aaa)"><path fill="#2f4d33" d="M 423.453125 526.78125 L 581.871094 526.78125 L 581.871094 685.203125 L 423.453125 685.203125 Z M 423.453125 526.78125 " fill-opacity="1" fill-rule="nonzero"/></g></g><g fill="#ffffff" fill-opacity="1"><g transform="translate(500.174627, 620.882269)"><g/></g></g><g clip-path="url(#e2ab209e45)"><g clip-path="url(#36c38efd2a)"><path fill="#2f4d33" d="M 423.453125 56.246094 L 568.847656 56.246094 L 568.847656 201.640625 L 423.453125 201.640625 Z M 423.453125 56.246094 " fill-opacity="1" fill-rule="nonzero"/></g></g><path stroke-linecap="butt" transform="matrix(5.39298, 0, 0, 5.39298, 32.569265, 269.120865)" fill="none" stroke-linejoin="miter" d="M 50.916352 74.331331 L 50.005156 74.331331 C 48.813648 76.567311 47.185374 78.244114 45.11961 79.361742 C 43.053846 80.480094 40.799758 81.03927 38.357347 81.03927 C 35.87872 81.03927 33.539163 80.619888 31.340123 79.781124 C 29.152673 78.930771 27.226703 77.709565 25.561489 76.117507 C 23.896999 74.525449 22.578734 72.55095 21.605971 70.193284 C 20.633932 67.82403 20.147912 65.120139 20.147912 62.082336 L 20.147912 60.879238 C 20.147912 57.902278 20.646245 55.234603 21.642911 52.877662 C 22.638853 50.507683 23.957842 48.515076 25.598429 46.899115 C 27.238293 45.270117 29.152673 44.037322 31.340123 43.198558 C 33.539163 42.348205 35.83019 41.923028 38.211759 41.923028 C 40.896817 41.923028 43.248688 42.511902 45.265923 43.691096 C 47.283157 44.857254 48.862902 46.558684 50.005156 48.794664 L 50.916352 48.794664 L 50.916352 42.961705 L 56.730478 42.961705 L 56.730478 89.114002 C 56.730478 90.803119 56.195929 92.19454 55.126831 93.287541 C 54.057733 94.381266 52.677901 94.928129 50.988784 94.928129 L 26.873959 94.928129 L 26.873959 89.551492 L 48.892599 89.551492 C 50.242009 89.551492 50.916352 88.803993 50.916352 87.308994 Z M 38.521768 75.516321 C 40.259415 75.516321 41.875375 75.193998 43.36965 74.550076 C 44.864649 73.906155 46.1706 72.98844 47.288952 71.797656 C 48.406579 70.594558 49.288078 69.160402 49.932 67.495912 C 50.588235 65.831422 50.916352 63.977884 50.916352 61.936747 L 50.916352 61.043659 C 50.916352 59.050327 50.588235 57.221416 49.932 55.556926 C 49.288078 53.880123 48.406579 52.445967 47.288952 51.255183 C 46.1706 50.064399 44.852335 49.13437 43.333434 48.466546 C 41.814532 47.785684 40.210885 47.445253 38.521768 47.445253 C 36.771808 47.445253 35.137015 47.773371 33.618114 48.429606 C 32.099212 49.074252 30.780947 49.991242 29.662596 51.182026 C 28.544968 52.37281 27.675783 53.794653 27.056488 55.447554 C 26.436469 57.088141 26.12646 58.898944 26.12646 60.879238 L 26.12646 62.082336 C 26.12646 64.172727 26.436469 66.037854 27.056488 67.678441 C 27.675783 69.318304 28.544968 70.728558 29.662596 71.907028 C 30.780947 73.073185 32.086899 73.966998 33.581898 74.586292 C 35.076172 75.206311 36.723279 75.516321 38.521768 75.516321 Z M 103.386179 61.936747 C 103.386179 65.02308 102.876257 67.750873 101.855688 70.120852 C 100.834395 72.477793 99.479915 74.464606 97.790798 76.081291 C 96.101681 77.697252 94.120662 78.930771 91.848467 79.781124 C 89.58786 80.619888 87.236714 81.03927 84.794303 81.03927 C 82.315676 81.03927 79.952216 80.619888 77.703923 79.781124 C 75.467943 78.930771 73.499238 77.697252 71.797808 76.081291 C 70.108691 74.464606 68.75421 72.477793 67.733641 70.120852 C 66.712349 67.750873 66.202426 65.02308 66.202426 61.936747 L 66.202426 61.043659 C 66.202426 58.005132 66.712349 55.30776 67.733641 52.950094 C 68.75421 50.58084 70.121004 48.575919 71.834748 46.935331 C 73.560081 45.28243 75.5411 44.037322 77.777079 43.198558 C 80.024648 42.348205 82.364205 41.923028 84.794303 41.923028 C 87.236714 41.923028 89.576271 42.348205 91.812251 43.198558 C 94.059819 44.037322 96.040838 45.28243 97.753857 46.935331 C 99.467601 48.575919 100.834395 50.58084 101.855688 52.950094 C 102.876257 55.30776 103.386179 58.005132 103.386179 61.043659 Z M 84.794303 75.516321 C 86.592792 75.516321 88.251488 75.206311 89.770389 74.586292 C 91.289291 73.966998 92.619869 73.061596 93.762123 71.870812 C 94.904378 70.667715 95.797466 69.233559 96.442112 67.569069 C 97.097622 65.903854 97.42574 64.026414 97.42574 61.936747 L 97.42574 61.043659 C 97.42574 59.050327 97.097622 57.221416 96.442112 55.556926 C 95.797466 53.880123 94.904378 52.445967 93.762123 51.255183 C 92.619869 50.064399 91.276977 49.13437 89.734173 48.466546 C 88.190645 47.785684 86.544263 47.445253 84.794303 47.445253 C 83.056656 47.445253 81.416069 47.785684 79.873265 48.466546 C 78.329736 49.13437 76.986845 50.064399 75.84459 51.255183 C 74.702336 52.445967 73.803453 53.880123 73.147218 55.556926 C 72.502572 57.221416 72.180974 59.050327 72.180974 61.043659 L 72.180974 61.936747 C 72.180974 64.026414 72.502572 65.903854 73.147218 67.569069 C 73.803453 69.233559 74.702336 70.667715 75.84459 71.870812 C 76.986845 73.061596 78.317423 73.966998 79.836324 74.586292 C 81.355226 75.206311 83.008127 75.516321 84.794303 75.516321 Z M 84.794303 75.516321 " stroke="#2f4d33" stroke-width="5.600002" stroke-opacity="1" stroke-miterlimit="4"/><g fill="#2f4d33" fill-opacity="1"><g transform="translate(120.289462, 700.559301)"><g><path d="M 186.828125 -30.59375 L 182 -30.59375 C 175.550781 -18.519531 166.753906 -9.460938 155.609375 -3.421875 C 144.472656 2.617188 132.332031 5.640625 119.1875 5.640625 C 105.757812 5.640625 93.140625 3.359375 81.328125 -1.203125 C 69.523438 -5.765625 59.125 -12.34375 50.125 -20.9375 C 41.132812 -29.53125 34.019531 -40.203125 28.78125 -52.953125 C 23.550781 -65.703125 20.9375 -80.265625 20.9375 -96.640625 L 20.9375 -103.078125 C 20.9375 -119.179688 23.617188 -133.609375 28.984375 -146.359375 C 34.359375 -159.109375 41.472656 -169.84375 50.328125 -178.5625 C 59.191406 -187.289062 69.523438 -193.9375 81.328125 -198.5 C 93.140625 -203.0625 105.488281 -205.34375 118.375 -205.34375 C 132.875 -205.34375 145.554688 -202.1875 156.421875 -195.875 C 167.296875 -189.570312 175.820312 -180.378906 182 -168.296875 L 186.828125 -168.296875 L 186.828125 -199.703125 L 218.234375 -199.703125 L 218.234375 49.125 C 218.234375 58.25 215.347656 65.765625 209.578125 71.671875 C 203.804688 77.578125 196.359375 80.53125 187.234375 80.53125 L 57.171875 80.53125 L 57.171875 51.53125 L 175.953125 51.53125 C 183.203125 51.53125 186.828125 47.503906 186.828125 39.453125 Z M 119.984375 -24.15625 C 129.378906 -24.15625 138.101562 -25.898438 146.15625 -29.390625 C 154.207031 -32.878906 161.253906 -37.84375 167.296875 -44.28125 C 173.335938 -50.726562 178.101562 -58.445312 181.59375 -67.4375 C 185.082031 -76.4375 186.828125 -86.4375 186.828125 -97.4375 L 186.828125 -102.265625 C 186.828125 -113.003906 185.082031 -122.867188 181.59375 -131.859375 C 178.101562 -140.859375 173.335938 -148.578125 167.296875 -155.015625 C 161.253906 -161.460938 154.140625 -166.492188 145.953125 -170.109375 C 137.765625 -173.734375 129.109375 -175.546875 119.984375 -175.546875 C 110.585938 -175.546875 101.796875 -173.800781 93.609375 -170.3125 C 85.421875 -166.820312 78.304688 -161.851562 72.265625 -155.40625 C 66.234375 -148.96875 61.539062 -141.320312 58.1875 -132.46875 C 54.832031 -123.613281 53.15625 -113.816406 53.15625 -103.078125 L 53.15625 -96.640625 C 53.15625 -85.359375 54.832031 -75.289062 58.1875 -66.4375 C 61.539062 -57.582031 66.234375 -50 72.265625 -43.6875 C 78.304688 -37.375 85.351562 -32.539062 93.40625 -29.1875 C 101.457031 -25.832031 110.316406 -24.15625 119.984375 -24.15625 Z M 119.984375 -24.15625 "/></g></g></g><g fill="#2f4d33" fill-opacity="1"><g transform="translate(366.692695, 700.559301)"><g><path d="M 223.46875 -97.4375 C 223.46875 -80.789062 220.710938 -66.09375 215.203125 -53.34375 C 209.703125 -40.59375 202.390625 -29.851562 193.265625 -21.125 C 184.140625 -12.40625 173.46875 -5.765625 161.25 -1.203125 C 149.039062 3.359375 136.359375 5.640625 123.203125 5.640625 C 109.785156 5.640625 97.035156 3.359375 84.953125 -1.203125 C 72.878906 -5.765625 62.273438 -12.40625 53.140625 -21.125 C 44.015625 -29.851562 36.703125 -40.59375 31.203125 -53.34375 C 25.703125 -66.09375 22.953125 -80.789062 22.953125 -97.4375 L 22.953125 -102.265625 C 22.953125 -118.640625 25.703125 -133.203125 31.203125 -145.953125 C 36.703125 -158.703125 44.082031 -169.503906 53.34375 -178.359375 C 62.601562 -187.222656 73.273438 -193.9375 85.359375 -198.5 C 97.441406 -203.0625 110.054688 -205.34375 123.203125 -205.34375 C 136.359375 -205.34375 148.972656 -203.0625 161.046875 -198.5 C 173.128906 -193.9375 183.800781 -187.222656 193.0625 -178.359375 C 202.320312 -169.503906 209.703125 -158.703125 215.203125 -145.953125 C 220.710938 -133.203125 223.46875 -118.640625 223.46875 -102.265625 Z M 123.203125 -24.15625 C 132.867188 -24.15625 141.796875 -25.832031 149.984375 -29.1875 C 158.171875 -32.539062 165.347656 -37.4375 171.515625 -43.875 C 177.691406 -50.320312 182.523438 -58.039062 186.015625 -67.03125 C 189.503906 -76.03125 191.25 -86.164062 191.25 -97.4375 L 191.25 -102.265625 C 191.25 -113.003906 189.503906 -122.867188 186.015625 -131.859375 C 182.523438 -140.859375 177.691406 -148.578125 171.515625 -155.015625 C 165.347656 -161.460938 158.101562 -166.492188 149.78125 -170.109375 C 141.457031 -173.734375 132.597656 -175.546875 123.203125 -175.546875 C 113.804688 -175.546875 104.945312 -173.734375 96.625 -170.109375 C 88.3125 -166.492188 81.066406 -161.460938 74.890625 -155.015625 C 68.710938 -148.578125 63.878906 -140.859375 60.390625 -131.859375 C 56.898438 -122.867188 55.15625 -113.003906 55.15625 -102.265625 L 55.15625 -97.4375 C 55.15625 -86.164062 56.898438 -76.03125 60.390625 -67.03125 C 63.878906 -58.039062 68.710938 -50.320312 74.890625 -43.875 C 81.066406 -37.4375 88.25 -32.539062 96.4375 -29.1875 C 104.625 -25.832031 113.546875 -24.15625 123.203125 -24.15625 Z M 123.203125 -24.15625 "/></g></g></g><path stroke-linecap="butt" transform="matrix(5.39298, 0, 0, 5.39298, 199.300438, 49.894825)" fill="none" stroke-linejoin="miter" d="M 25.696806 79.999772 L 19.863848 79.999772 L 19.863848 42.961608 L 25.696806 42.961608 L 25.696806 49.232057 L 26.589894 49.232057 C 28.874403 44.358824 32.853824 41.922932 38.52888 41.922932 C 42.818311 41.922932 46.226966 43.25351 48.754847 45.914666 C 51.294317 48.575822 52.564052 52.57335 52.564052 57.907976 L 52.564052 79.999772 L 46.749926 79.999772 L 46.749926 59.092965 C 46.749926 55.216398 45.874946 52.306076 44.124986 50.361998 C 42.387339 48.41792 40.023879 47.445881 37.034606 47.445881 C 33.510059 47.445881 30.73953 48.654773 28.722296 51.072557 C 26.705061 53.478752 25.696806 56.699084 25.696806 60.733553 Z M 100.496007 61.93665 C 100.496007 65.022983 99.98536 67.750776 98.964792 70.120755 C 97.944223 72.478421 96.589018 74.465234 94.899901 76.081194 C 93.210784 77.697155 91.23049 78.930674 88.95757 79.781027 C 86.697688 80.619791 84.346542 81.039173 81.903406 81.039173 C 79.424779 81.039173 77.061319 80.619791 74.813026 79.781027 C 72.577047 78.930674 70.609066 77.697155 68.907635 76.081194 C 67.218518 74.465234 65.863313 72.478421 64.842745 70.120755 C 63.822176 67.750776 63.31153 65.022983 63.31153 61.93665 L 63.31153 61.043562 C 63.31153 58.005759 63.822176 55.307663 64.842745 52.949997 C 65.863313 50.580743 67.230832 48.575822 68.943851 46.935234 C 70.669185 45.282333 72.650203 44.037225 74.886182 43.198461 C 77.134475 42.348108 79.473309 41.922932 81.903406 41.922932 C 84.346542 41.922932 86.685375 42.348108 88.921354 43.198461 C 91.169647 44.037225 93.149941 45.282333 94.863685 46.935234 C 96.576705 48.575822 97.944223 50.580743 98.964792 52.949997 C 99.98536 55.307663 100.496007 58.005759 100.496007 61.043562 Z M 81.903406 75.516224 C 83.701896 75.516224 85.360591 75.206214 86.879493 74.586195 C 88.399119 73.966901 89.729697 73.061499 90.871951 71.870715 C 92.014206 70.667618 92.907294 69.233462 93.551215 67.568972 C 94.20745 65.903757 94.535568 64.026317 94.535568 61.93665 L 94.535568 61.043562 C 94.535568 59.05023 94.20745 57.221319 93.551215 55.556829 C 92.907294 53.880026 92.014206 52.44587 90.871951 51.255086 C 89.729697 50.064302 88.386805 49.134998 86.843277 48.466449 C 85.300473 47.785587 83.653366 47.445881 81.903406 47.445881 C 80.16576 47.445881 78.525896 47.785587 76.982368 48.466449 C 75.43884 49.134998 74.095948 50.064302 72.953694 51.255086 C 71.811439 52.44587 70.912556 53.880026 70.256321 55.556829 C 69.6124 57.221319 69.290077 59.05023 69.290077 61.043562 L 69.290077 61.93665 C 69.290077 64.026317 69.6124 65.903757 70.256321 67.568972 C 70.912556 69.233462 71.811439 70.667618 72.953694 71.870715 C 74.095948 73.061499 75.426526 73.966901 76.946152 74.586195 C 78.465053 75.206214 80.11723 75.516224 81.903406 75.516224 Z M 81.903406 75.516224 " stroke="#2f4d33" stroke-width="5.600002" stroke-opacity="1" stroke-miterlimit="4"/><g fill="#2f4d33" fill-opacity="1"><g transform="translate(271.431552, 481.333261)"><g><path d="M 66.4375 0 L 35.03125 0 L 35.03125 -199.703125 L 66.4375 -199.703125 L 66.4375 -165.890625 L 71.265625 -165.890625 C 83.609375 -192.191406 105.082031 -205.34375 135.6875 -205.34375 C 158.769531 -205.34375 177.15625 -198.160156 190.84375 -183.796875 C 204.539062 -169.441406 211.390625 -147.90625 211.390625 -119.1875 L 211.390625 0 L 179.984375 0 L 179.984375 -112.734375 C 179.984375 -133.671875 175.285156 -149.375 165.890625 -159.84375 C 156.492188 -170.3125 143.742188 -175.546875 127.640625 -175.546875 C 108.578125 -175.546875 93.609375 -169.035156 82.734375 -156.015625 C 71.867188 -143.003906 66.4375 -125.625 66.4375 -103.875 Z M 66.4375 0 "/></g></g></g><g fill="#2f4d33" fill-opacity="1"><g transform="translate(517.834785, 481.333261)"><g><path d="M 223.46875 -97.4375 C 223.46875 -80.789062 220.710938 -66.09375 215.203125 -53.34375 C 209.703125 -40.59375 202.390625 -29.851562 193.265625 -21.125 C 184.140625 -12.40625 173.46875 -5.765625 161.25 -1.203125 C 149.039062 3.359375 136.359375 5.640625 123.203125 5.640625 C 109.785156 5.640625 97.035156 3.359375 84.953125 -1.203125 C 72.878906 -5.765625 62.273438 -12.40625 53.140625 -21.125 C 44.015625 -29.851562 36.703125 -40.59375 31.203125 -53.34375 C 25.703125 -66.09375 22.953125 -80.789062 22.953125 -97.4375 L 22.953125 -102.265625 C 22.953125 -118.640625 25.703125 -133.203125 31.203125 -145.953125 C 36.703125 -158.703125 44.082031 -169.503906 53.34375 -178.359375 C 62.601562 -187.222656 73.273438 -193.9375 85.359375 -198.5 C 97.441406 -203.0625 110.054688 -205.34375 123.203125 -205.34375 C 136.359375 -205.34375 148.972656 -203.0625 161.046875 -198.5 C 173.128906 -193.9375 183.800781 -187.222656 193.0625 -178.359375 C 202.320312 -169.503906 209.703125 -158.703125 215.203125 -145.953125 C 220.710938 -133.203125 223.46875 -118.640625 223.46875 -102.265625 Z M 123.203125 -24.15625 C 132.867188 -24.15625 141.796875 -25.832031 149.984375 -29.1875 C 158.171875 -32.539062 165.347656 -37.4375 171.515625 -43.875 C 177.691406 -50.320312 182.523438 -58.039062 186.015625 -67.03125 C 189.503906 -76.03125 191.25 -86.164062 191.25 -97.4375 L 191.25 -102.265625 C 191.25 -113.003906 189.503906 -122.867188 186.015625 -131.859375 C 182.523438 -140.859375 177.691406 -148.578125 171.515625 -155.015625 C 165.347656 -161.460938 158.101562 -166.492188 149.78125 -170.109375 C 141.457031 -173.734375 132.597656 -175.546875 123.203125 -175.546875 C 113.804688 -175.546875 104.945312 -173.734375 96.625 -170.109375 C 88.3125 -166.492188 81.066406 -161.460938 74.890625 -155.015625 C 68.710938 -148.578125 63.878906 -140.859375 60.390625 -131.859375 C 56.898438 -122.867188 55.15625 -113.003906 55.15625 -102.265625 L 55.15625 -97.4375 C 55.15625 -86.164062 56.898438 -76.03125 60.390625 -67.03125 C 63.878906 -58.039062 68.710938 -50.320312 74.890625 -43.875 C 81.066406 -37.4375 88.25 -32.539062 96.4375 -29.1875 C 104.625 -25.832031 113.546875 -24.15625 123.203125 -24.15625 Z M 123.203125 -24.15625 "/></g></g></g><path stroke-linecap="butt" transform="matrix(5.39298, 0, 0, 5.39298, 32.569265, -200.634858)" fill="none" stroke-linejoin="miter" d="M 50.916352 74.330944 L 50.005156 74.330944 C 48.813648 76.566923 47.185374 78.243727 45.11961 79.362079 C 43.053846 80.479706 40.799758 81.038882 38.357347 81.038882 C 35.87872 81.038882 33.539163 80.6195 31.340123 79.781461 C 29.152673 78.930383 27.226703 77.709178 25.561489 76.117844 C 23.896999 74.525786 22.578734 72.551287 21.605971 70.193621 C 20.633932 67.824367 20.147912 65.120476 20.147912 62.082673 L 20.147912 60.879575 C 20.147912 57.901891 20.646245 55.23494 21.642911 52.877275 C 22.638853 50.50802 23.957842 48.514688 25.598429 46.898727 C 27.238293 45.270453 29.152673 44.036934 31.340123 43.198895 C 33.539163 42.347817 35.83019 41.922641 38.211759 41.922641 C 40.896817 41.922641 43.248688 42.512238 45.265923 43.690709 C 47.283157 44.85759 48.862902 46.558297 50.005156 48.794276 L 50.916352 48.794276 L 50.916352 42.961318 L 56.730478 42.961318 L 56.730478 89.113615 C 56.730478 90.802732 56.195929 92.194153 55.126831 93.287878 C 54.057733 94.381603 52.677901 94.928465 50.988784 94.928465 L 26.873959 94.928465 L 26.873959 89.551105 L 48.892599 89.551105 C 50.242009 89.551105 50.916352 88.803605 50.916352 87.309331 Z M 38.521768 75.515933 C 40.259415 75.515933 41.875375 75.194335 43.36965 74.549689 C 44.864649 73.905767 46.1706 72.988777 47.288952 71.797268 C 48.406579 70.594895 49.288078 69.160739 49.932 67.496249 C 50.588235 65.831035 50.916352 63.978221 50.916352 61.93636 L 50.916352 61.043272 C 50.916352 59.050664 50.588235 57.221753 49.932 55.556539 C 49.288078 53.879735 48.406579 52.446303 47.288952 51.255519 C 46.1706 50.064011 44.852335 49.134707 43.333434 48.466159 C 41.814532 47.786021 40.210885 47.44559 38.521768 47.44559 C 36.771808 47.44559 35.137015 47.773707 33.618114 48.429942 C 32.099212 49.073864 30.780947 49.991579 29.662596 51.182363 C 28.544968 52.373147 27.675783 53.79499 27.056488 55.447166 C 26.436469 57.087754 26.12646 58.898557 26.12646 60.879575 L 26.12646 62.082673 C 26.12646 64.172339 26.436469 66.037466 27.056488 67.678054 C 27.675783 69.318641 28.544968 70.72817 29.662596 71.906641 C 30.780947 73.073522 32.086899 73.96661 33.581898 74.586629 C 35.076172 75.205924 36.723279 75.515933 38.521768 75.515933 Z M 103.386179 61.93636 C 103.386179 65.022692 102.876257 67.75121 101.855688 70.120465 C 100.834395 72.47813 99.479915 74.464943 97.790798 76.080904 C 96.101681 77.697589 94.120662 78.930383 91.848467 79.781461 C 89.58786 80.6195 87.236714 81.038882 84.794303 81.038882 C 82.315676 81.038882 79.952216 80.6195 77.703923 79.781461 C 75.467943 78.930383 73.499238 77.697589 71.797808 76.080904 C 70.108691 74.464943 68.75421 72.47813 67.733641 70.120465 C 66.712349 67.75121 66.202426 65.022692 66.202426 61.93636 L 66.202426 61.043272 C 66.202426 58.005469 66.712349 55.308096 67.733641 52.950431 C 68.75421 50.580452 70.121004 48.575531 71.834748 46.934944 C 73.560081 45.282767 75.5411 44.036934 77.777079 43.198895 C 80.024648 42.347817 82.364205 41.922641 84.794303 41.922641 C 87.236714 41.922641 89.576271 42.347817 91.812251 43.198895 C 94.059819 44.036934 96.040838 45.282767 97.753857 46.934944 C 99.467601 48.575531 100.834395 50.580452 101.855688 52.950431 C 102.876257 55.308096 103.386179 58.005469 103.386179 61.043272 Z M 84.794303 75.515933 C 86.592792 75.515933 88.251488 75.205924 89.770389 74.586629 C 91.289291 73.96661 92.619869 73.061209 93.762123 71.870425 C 94.904378 70.667327 95.797466 69.233896 96.442112 67.568681 C 97.097622 65.904191 97.42574 64.026751 97.42574 61.93636 L 97.42574 61.043272 C 97.42574 59.050664 97.097622 57.221753 96.442112 55.556539 C 95.797466 53.879735 94.904378 52.446303 93.762123 51.255519 C 92.619869 50.064011 91.276977 49.134707 89.734173 48.466159 C 88.190645 47.786021 86.544263 47.44559 84.794303 47.44559 C 83.056656 47.44559 81.416069 47.786021 79.873265 48.466159 C 78.329736 49.134707 76.986845 50.064011 75.84459 51.255519 C 74.702336 52.446303 73.803453 53.879735 73.147218 55.556539 C 72.502572 57.221753 72.180974 59.050664 72.180974 61.043272 L 72.180974 61.93636 C 72.180974 64.026751 72.502572 65.904191 73.147218 67.568681 C 73.803453 69.233896 74.702336 70.667327 75.84459 71.870425 C 76.986845 73.061209 78.317423 73.96661 79.836324 74.586629 C 81.355226 75.205924 83.008127 75.515933 84.794303 75.515933 Z M 84.794303 75.515933 " stroke="#2f4d33" stroke-width="5.600002" stroke-opacity="1" stroke-miterlimit="4"/><g fill="#2f4d33" fill-opacity="1"><g transform="translate(120.289462, 230.803578)"><g><path d="M 186.828125 -30.59375 L 182 -30.59375 C 175.550781 -18.519531 166.753906 -9.460938 155.609375 -3.421875 C 144.472656 2.617188 132.332031 5.640625 119.1875 5.640625 C 105.757812 5.640625 93.140625 3.359375 81.328125 -1.203125 C 69.523438 -5.765625 59.125 -12.34375 50.125 -20.9375 C 41.132812 -29.53125 34.019531 -40.203125 28.78125 -52.953125 C 23.550781 -65.703125 20.9375 -80.265625 20.9375 -96.640625 L 20.9375 -103.078125 C 20.9375 -119.179688 23.617188 -133.609375 28.984375 -146.359375 C 34.359375 -159.109375 41.472656 -169.84375 50.328125 -178.5625 C 59.191406 -187.289062 69.523438 -193.9375 81.328125 -198.5 C 93.140625 -203.0625 105.488281 -205.34375 118.375 -205.34375 C 132.875 -205.34375 145.554688 -202.1875 156.421875 -195.875 C 167.296875 -189.570312 175.820312 -180.378906 182 -168.296875 L 186.828125 -168.296875 L 186.828125 -199.703125 L 218.234375 -199.703125 L 218.234375 49.125 C 218.234375 58.25 215.347656 65.765625 209.578125 71.671875 C 203.804688 77.578125 196.359375 80.53125 187.234375 80.53125 L 57.171875 80.53125 L 57.171875 51.53125 L 175.953125 51.53125 C 183.203125 51.53125 186.828125 47.503906 186.828125 39.453125 Z M 119.984375 -24.15625 C 129.378906 -24.15625 138.101562 -25.898438 146.15625 -29.390625 C 154.207031 -32.878906 161.253906 -37.84375 167.296875 -44.28125 C 173.335938 -50.726562 178.101562 -58.445312 181.59375 -67.4375 C 185.082031 -76.4375 186.828125 -86.4375 186.828125 -97.4375 L 186.828125 -102.265625 C 186.828125 -113.003906 185.082031 -122.867188 181.59375 -131.859375 C 178.101562 -140.859375 173.335938 -148.578125 167.296875 -155.015625 C 161.253906 -161.460938 154.140625 -166.492188 145.953125 -170.109375 C 137.765625 -173.734375 129.109375 -175.546875 119.984375 -175.546875 C 110.585938 -175.546875 101.796875 -173.800781 93.609375 -170.3125 C 85.421875 -166.820312 78.304688 -161.851562 72.265625 -155.40625 C 66.234375 -148.96875 61.539062 -141.320312 58.1875 -132.46875 C 54.832031 -123.613281 53.15625 -113.816406 53.15625 -103.078125 L 53.15625 -96.640625 C 53.15625 -85.359375 54.832031 -75.289062 58.1875 -66.4375 C 61.539062 -57.582031 66.234375 -50 72.265625 -43.6875 C 78.304688 -37.375 85.351562 -32.539062 93.40625 -29.1875 C 101.457031 -25.832031 110.316406 -24.15625 119.984375 -24.15625 Z M 119.984375 -24.15625 "/></g></g></g><g fill="#2f4d33" fill-opacity="1"><g transform="translate(366.692695, 230.803578)"><g><path d="M 223.46875 -97.4375 C 223.46875 -80.789062 220.710938 -66.09375 215.203125 -53.34375 C 209.703125 -40.59375 202.390625 -29.851562 193.265625 -21.125 C 184.140625 -12.40625 173.46875 -5.765625 161.25 -1.203125 C 149.039062 3.359375 136.359375 5.640625 123.203125 5.640625 C 109.785156 5.640625 97.035156 3.359375 84.953125 -1.203125 C 72.878906 -5.765625 62.273438 -12.40625 53.140625 -21.125 C 44.015625 -29.851562 36.703125 -40.59375 31.203125 -53.34375 C 25.703125 -66.09375 22.953125 -80.789062 22.953125 -97.4375 L 22.953125 -102.265625 C 22.953125 -118.640625 25.703125 -133.203125 31.203125 -145.953125 C 36.703125 -158.703125 44.082031 -169.503906 53.34375 -178.359375 C 62.601562 -187.222656 73.273438 -193.9375 85.359375 -198.5 C 97.441406 -203.0625 110.054688 -205.34375 123.203125 -205.34375 C 136.359375 -205.34375 148.972656 -203.0625 161.046875 -198.5 C 173.128906 -193.9375 183.800781 -187.222656 193.0625 -178.359375 C 202.320312 -169.503906 209.703125 -158.703125 215.203125 -145.953125 C 220.710938 -133.203125 223.46875 -118.640625 223.46875 -102.265625 Z M 123.203125 -24.15625 C 132.867188 -24.15625 141.796875 -25.832031 149.984375 -29.1875 C 158.171875 -32.539062 165.347656 -37.4375 171.515625 -43.875 C 177.691406 -50.320312 182.523438 -58.039062 186.015625 -67.03125 C 189.503906 -76.03125 191.25 -86.164062 191.25 -97.4375 L 191.25 -102.265625 C 191.25 -113.003906 189.503906 -122.867188 186.015625 -131.859375 C 182.523438 -140.859375 177.691406 -148.578125 171.515625 -155.015625 C 165.347656 -161.460938 158.101562 -166.492188 149.78125 -170.109375 C 141.457031 -173.734375 132.597656 -175.546875 123.203125 -175.546875 C 113.804688 -175.546875 104.945312 -173.734375 96.625 -170.109375 C 88.3125 -166.492188 81.066406 -161.460938 74.890625 -155.015625 C 68.710938 -148.578125 63.878906 -140.859375 60.390625 -131.859375 C 56.898438 -122.867188 55.15625 -113.003906 55.15625 -102.265625 L 55.15625 -97.4375 C 55.15625 -86.164062 56.898438 -76.03125 60.390625 -67.03125 C 63.878906 -58.039062 68.710938 -50.320312 74.890625 -43.875 C 81.066406 -37.4375 88.25 -32.539062 96.4375 -29.1875 C 104.625 -25.832031 113.546875 -24.15625 123.203125 -24.15625 Z M 123.203125 -24.15625 "/></g></g></g><path fill="#ffffff" d="M 548.25 121.664062 C 548.519531 119.605469 552.308594 116.5625 552.429688 114.492188 C 552.652344 110.726562 547.5625 103.359375 544.066406 101.941406 C 538.515625 99.695312 510.300781 100.746094 510.300781 100.746094 C 507.546875 95.925781 515.214844 84.023438 517.324219 78.886719 C 520.421875 71.355469 519.898438 61.363281 515.984375 56.230469 C 511.199219 49.957031 502.417969 49.539062 502.238281 52.347656 C 500.929688 72.699219 497.035156 78.347656 491.816406 82.371094 C 488.683594 84.789062 485.941406 86.90625 484.496094 90.589844 C 475.605469 113.234375 469.015625 118.476562 465.25 118.476562 L 462.738281 118.476562 L 462.738281 169.945312 L 489.097656 174.84375 C 489.097656 174.84375 521.816406 177.941406 532.117188 174.84375 C 535.359375 173.875 540.957031 169.003906 542.277344 165.882812 C 543.03125 164.089844 541.984375 159.84375 542.878906 158.113281 C 544.195312 155.546875 549.753906 152.335938 549.75 148.851562 C 549.746094 146.367188 546.847656 142.066406 547.058594 139.589844 C 547.269531 137.109375 552.441406 133.707031 552.4375 131.222656 C 552.425781 128.617188 547.90625 124.25 548.25 121.664062 Z M 548.25 121.664062 " fill-opacity="1" fill-rule="nonzero"/><g clip-path="url(#437f30b6db)"><path fill="#ffffff" d="M 457.71875 168.6875 C 457.71875 171.460938 455.472656 173.710938 452.699219 173.710938 L 437.632812 173.710938 C 434.859375 173.710938 432.613281 171.460938 432.613281 168.6875 L 432.613281 120.984375 C 432.613281 118.214844 434.859375 115.964844 437.632812 115.964844 L 452.699219 115.964844 C 455.472656 115.964844 457.71875 118.214844 457.71875 120.984375 Z M 457.71875 168.6875 " fill-opacity="1" fill-rule="nonzero"/></g><g clip-path="url(#cf8f0496ed)"><path fill="#ffffff" d="M 436.988281 605.871094 C 436.714844 607.929688 432.929688 610.972656 432.804688 613.042969 C 432.585938 616.808594 437.675781 624.175781 441.171875 625.59375 C 446.722656 627.839844 474.933594 626.789062 474.933594 626.789062 C 477.691406 631.609375 470.019531 643.507812 467.910156 648.648438 C 464.816406 656.179688 465.335938 666.171875 469.253906 671.304688 C 474.035156 677.578125 482.816406 677.996094 483 675.1875 C 484.304688 654.835938 488.203125 649.1875 493.421875 645.164062 C 496.554688 642.746094 499.292969 640.628906 500.738281 636.945312 C 509.628906 614.300781 516.21875 609.058594 519.984375 609.058594 L 522.496094 609.058594 L 522.496094 557.589844 L 496.140625 552.6875 C 496.140625 552.6875 463.421875 549.59375 453.117188 552.6875 C 449.875 553.660156 444.28125 558.527344 442.960938 561.652344 C 442.203125 563.445312 443.25 567.691406 442.359375 569.421875 C 441.042969 571.988281 435.480469 575.199219 435.484375 578.683594 C 435.492188 581.167969 438.386719 585.46875 438.175781 587.945312 C 437.964844 590.425781 432.792969 593.828125 432.796875 596.3125 C 432.808594 598.917969 437.332031 603.285156 436.988281 605.871094 Z M 436.988281 605.871094 " fill-opacity="1" fill-rule="nonzero"/></g><path fill="#ffffff" d="M 527.515625 558.847656 C 527.515625 556.074219 529.765625 553.824219 532.539062 553.824219 L 547.601562 553.824219 C 550.375 553.824219 552.625 556.074219 552.625 558.847656 L 552.625 606.546875 C 552.625 609.320312 550.375 611.570312 547.601562 611.570312 L 532.539062 611.570312 C 529.765625 611.570312 527.515625 609.320312 527.515625 606.546875 Z M 527.515625 558.847656 " fill-opacity="1" fill-rule="nonzero"/><path stroke-linecap="butt" transform="matrix(1.347699, 0, 0, 1.347699, 191.805215, 90.308483)" fill="none" stroke-linejoin="miter" d="M 17.648329 39.998824 L 14.6919 39.998824 C 13.642658 39.998824 12.738339 39.853901 11.981841 39.558258 C 11.225343 39.265514 10.648549 38.7264 10.248562 37.946715 C 9.854371 37.164131 9.657276 36.071411 9.657276 34.665659 L 9.657276 21.639981 L 6.242891 21.639981 L 6.242891 18.758913 L 9.657276 18.758913 L 9.657276 10.695398 L 12.920942 10.695398 L 12.920942 18.758913 L 17.683111 18.758913 L 17.683111 21.639981 L 12.920942 21.639981 L 12.920942 34.007708 C 12.920942 34.619283 12.964418 35.164194 13.051372 35.639541 C 13.147021 36.114888 13.370203 36.480094 13.726713 36.738057 C 14.089021 36.993122 14.668713 37.120654 15.462891 37.120654 L 17.648329 37.120654 Z M 25.09737 39.998824 L 21.833705 39.998824 L 21.833705 10.695398 L 25.09737 10.695398 L 25.09737 22.060258 C 26.172699 20.680591 27.201652 19.718303 28.181331 19.182088 C 29.169706 18.645873 30.242136 18.376316 31.398621 18.376316 C 33.062337 18.376316 34.39273 18.692248 35.392698 19.324112 C 36.395565 19.947281 37.146266 20.744357 37.653497 21.715341 C 38.166524 22.663138 38.459269 23.651512 38.534629 24.677567 C 38.615785 25.703622 38.656364 26.547073 38.656364 27.207922 L 38.656364 39.998824 L 35.392698 39.998824 L 35.392698 27.207922 C 35.392698 24.958718 34.984016 23.370362 34.16665 22.445753 C 33.447832 21.651575 32.358011 21.254486 30.902985 21.254486 C 30.02765 21.254486 29.271152 21.396511 28.633491 21.677661 C 27.99583 21.958812 27.456716 22.341409 27.019049 22.831248 C 26.326317 23.550066 25.83068 24.535542 25.537936 25.793474 C 25.245191 27.04271 25.09737 28.7557 25.09737 30.932443 Z M 53.400828 40.384319 C 51.380601 40.384319 49.589353 39.906073 48.027084 38.949582 C 46.464814 37.987293 45.247461 36.680088 44.377923 35.030865 C 43.511284 33.372946 43.076515 31.509236 43.076515 29.439736 C 43.076515 27.515159 43.473604 25.709419 44.267781 24.019617 C 45.059061 22.332713 46.224242 20.970437 47.754628 19.932789 C 49.29371 18.89514 51.148724 18.376316 53.325468 18.376316 C 55.119614 18.376316 56.792025 18.773405 58.342701 19.567583 C 59.893377 20.361761 61.151308 21.538535 62.122292 23.100805 C 63.096175 24.665973 63.583116 26.584753 63.583116 28.860044 L 63.583116 30.013631 L 46.3025 30.013631 C 46.351774 30.755637 46.4909 31.459962 46.722777 32.12371 C 47.26189 33.761339 48.116936 35.068544 49.29371 36.042427 C 50.473383 37.019208 51.829862 37.506149 53.363148 37.506149 C 54.974691 37.506149 56.319576 37.077177 57.394905 36.222131 C 58.470233 35.35839 59.238325 34.338133 59.702079 33.164257 L 63.200519 33.164257 C 62.762852 34.494649 62.1078 35.706206 61.238262 36.793128 C 60.371623 37.88005 59.287599 38.752487 57.994886 39.410437 C 56.702173 40.059692 55.168888 40.384319 53.400828 40.384319 Z M 46.601041 27.135461 L 60.084675 27.135461 C 60.061488 26.770255 60.009315 26.410846 59.92526 26.054335 C 59.852798 25.700723 59.751352 25.3674 59.626719 25.063062 C 59.064417 23.831217 58.226763 22.889217 57.113754 22.239963 C 56.000746 21.582012 54.763104 21.254486 53.400828 21.254486 C 51.992176 21.254486 50.757432 21.587809 49.696596 22.257353 C 48.632862 22.921101 47.806801 23.854404 47.221312 25.063062 C 47.064795 25.393487 46.934364 25.741302 46.835817 26.103609 C 46.734371 26.46012 46.659011 26.802138 46.601041 27.135461 Z M 46.601041 27.135461 " stroke="#2f4d33" stroke-width="2.881432" stroke-opacity="1" stroke-miterlimit="4"/><g fill="#2f4d33" fill-opacity="1"><g transform="translate(198.817459, 144.216428)"><g><path d="M 16.765625 0 L 12.78125 0 C 11.363281 0 10.144531 -0.195312 9.125 -0.59375 C 8.113281 -0.988281 7.335938 -1.710938 6.796875 -2.765625 C 6.265625 -3.816406 6 -5.296875 6 -7.203125 L 6 -24.75 L 1.390625 -24.75 L 1.390625 -28.625 L 6 -28.625 L 6 -39.5 L 10.40625 -39.5 L 10.40625 -28.625 L 16.828125 -28.625 L 16.828125 -24.75 L 10.40625 -24.75 L 10.40625 -8.078125 C 10.40625 -7.242188 10.460938 -6.507812 10.578125 -5.875 C 10.703125 -5.238281 11.003906 -4.742188 11.484375 -4.390625 C 11.972656 -4.046875 12.753906 -3.875 13.828125 -3.875 L 16.765625 -3.875 Z M 16.765625 0 "/></g></g></g><g fill="#2f4d33" fill-opacity="1"><g transform="translate(217.502774, 144.216428)"><g><path d="M 8.125 0 L 3.734375 0 L 3.734375 -39.5 L 8.125 -39.5 L 8.125 -24.171875 C 9.570312 -26.035156 10.957031 -27.328125 12.28125 -28.046875 C 13.613281 -28.773438 15.054688 -29.140625 16.609375 -29.140625 C 18.859375 -29.140625 20.65625 -28.71875 22 -27.875 C 23.34375 -27.03125 24.359375 -25.953125 25.046875 -24.640625 C 25.742188 -23.359375 26.144531 -22.023438 26.25 -20.640625 C 26.351562 -19.265625 26.40625 -18.128906 26.40625 -17.234375 L 26.40625 0 L 22 0 L 22 -17.234375 C 22 -20.273438 21.445312 -22.414062 20.34375 -23.65625 C 19.375 -24.726562 17.90625 -25.265625 15.9375 -25.265625 C 14.769531 -25.265625 13.753906 -25.070312 12.890625 -24.6875 C 12.023438 -24.3125 11.300781 -23.796875 10.71875 -23.140625 C 9.78125 -22.171875 9.113281 -20.835938 8.71875 -19.140625 C 8.320312 -17.453125 8.125 -15.144531 8.125 -12.21875 Z M 8.125 0 "/></g></g></g><g fill="#2f4d33" fill-opacity="1"><g transform="translate(247.368232, 144.216428)"><g><path d="M 16.40625 0.515625 C 13.675781 0.515625 11.257812 -0.128906 9.15625 -1.421875 C 7.050781 -2.710938 5.410156 -4.472656 4.234375 -6.703125 C 3.066406 -8.929688 2.484375 -11.441406 2.484375 -14.234375 C 2.484375 -16.828125 3.015625 -19.257812 4.078125 -21.53125 C 5.148438 -23.8125 6.722656 -25.648438 8.796875 -27.046875 C 10.867188 -28.441406 13.375 -29.140625 16.3125 -29.140625 C 18.726562 -29.140625 20.976562 -28.601562 23.0625 -27.53125 C 25.144531 -26.46875 26.84375 -24.882812 28.15625 -22.78125 C 29.46875 -20.675781 30.125 -18.085938 30.125 -15.015625 L 30.125 -13.453125 L 6.828125 -13.453125 C 6.898438 -12.453125 7.09375 -11.503906 7.40625 -10.609375 C 8.125 -8.398438 9.273438 -6.640625 10.859375 -5.328125 C 12.453125 -4.015625 14.285156 -3.359375 16.359375 -3.359375 C 18.535156 -3.359375 20.347656 -3.9375 21.796875 -5.09375 C 23.242188 -6.25 24.28125 -7.625 24.90625 -9.21875 L 29.609375 -9.21875 C 29.023438 -7.414062 28.144531 -5.78125 26.96875 -4.3125 C 25.789062 -2.851562 24.332031 -1.679688 22.59375 -0.796875 C 20.851562 0.078125 18.789062 0.515625 16.40625 0.515625 Z M 7.25 -17.34375 L 25.421875 -17.34375 C 25.378906 -17.820312 25.304688 -18.300781 25.203125 -18.78125 C 25.097656 -19.269531 24.960938 -19.722656 24.796875 -20.140625 C 24.035156 -21.796875 22.90625 -23.0625 21.40625 -23.9375 C 19.90625 -24.820312 18.238281 -25.265625 16.40625 -25.265625 C 14.507812 -25.265625 12.84375 -24.8125 11.40625 -23.90625 C 9.976562 -23.007812 8.867188 -21.753906 8.078125 -20.140625 C 7.867188 -19.691406 7.691406 -19.222656 7.546875 -18.734375 C 7.410156 -18.253906 7.3125 -17.789062 7.25 -17.34375 Z M 7.25 -17.34375 "/></g></g></g></svg>